<svg id="Capa_1" enable-background="new 0 0 512 512" height="512" viewBox="0 0 512 512" width="512" xmlns="http://www.w3.org/2000/svg"><g><path d="m294.716 249.525 36.11-139.004c-3.727-5.262-9.002-9.45-15.354-11.832l-32.239-12.09c-6.446-2.417-10.717-8.58-10.717-15.464h-33.032c0 6.885-4.271 13.047-10.717 15.464l-32.239 12.09c-6.352 2.382-11.626 6.57-15.354 11.832l36.11 139.005 4.609 58.819c.361 4.61.074 9.226-.836 13.717l1.908 28.302h66.068l1.913-28.299c-.911-4.492-1.198-9.109-.837-13.72z" fill="#ffe07d"/><path d="m295.187 334.373c-1.958-3.915-3.379-8.058-4.242-12.309h-69.889c-.863 4.251-2.285 8.394-4.243 12.309l-10.361 20.723 16.513 16.516h66.068l16.517-16.516z" fill="#ffd064"/><path d="m201.982 131.154-20.808-20.633c-4.31 6.089-6.555 13.623-5.996 21.451l3.665 51.32c2.295 32.128 19.009 54.334 38.426 66.057l-8.035-102.54c-.463-5.919-3.037-11.475-7.252-15.655z" fill="#ffd064"/><path d="m330.824 110.524-20.805 20.63c-4.215 4.181-6.789 9.736-7.253 15.655l-8.035 102.54c19.418-11.724 36.131-33.929 38.426-66.057l3.665-51.32c.559-7.829-1.688-15.36-5.998-21.448z" fill="#fff0af"/><path d="m239.484 70.837c5.064 2.216 10.635 3.486 16.516 3.486 5.882 0 11.452-1.27 16.516-3.486v-29.547h-33.032z" fill="#ffd064"/><path d="m305.548 355.097h-90.839c-4.561 0-8.258 3.697-8.258 8.258v17.145l107.355-8.887v-8.258c0-4.561-3.697-8.258-8.258-8.258z" fill="#ffe07d"/><path d="m214.71 355.097h-8.258c-4.561 0-8.258 3.697-8.258 8.258v41.29h115.613v-33.032h-82.581c-9.122 0-16.516-7.395-16.516-16.516z" fill="#ffd064"/><path d="m322.065 388.129h-123.871c-4.561 0-8.258 3.697-8.258 8.258v99.097h140.387v-99.097c0-4.561-3.698-8.258-8.258-8.258z" fill="#6f6571"/><path d="m355.097 478.968h-132.129c-13.682 0-24.774-11.092-24.774-24.774v-66.065h-8.258c-4.561 0-8.258 3.697-8.258 8.258v82.581h-16.516c-4.561 0-8.258 3.697-8.258 8.258v8.258c0 4.561 3.697 8.258 8.258 8.258h189.935c4.561 0 8.258-3.697 8.258-8.258v-8.258c0-4.561-3.697-8.258-8.258-8.258z" fill="#5d5360"/><path d="m264.258 0h-16.516c-9.122 0-16.516 7.395-16.516 16.516v16.516c0 13.682 11.092 24.774 24.774 24.774 13.682 0 24.774-11.092 24.774-24.774v-16.516c0-9.121-7.394-16.516-16.516-16.516z" fill="#ffe07d"/><path d="m272.516 165.161h-33.032c-4.565 0-8.258-3.698-8.258-8.258s3.694-8.258 8.258-8.258h33.032c4.565 0 8.258 3.698 8.258 8.258s-3.693 8.258-8.258 8.258z" fill="#ffd064"/><path d="m173.419 495.484c-4.561 0-8.258-3.698-8.258-8.258v-8.258h-8.258c-4.561 0-8.258 3.697-8.258 8.258v16.516c0 4.56 3.697 8.258 8.258 8.258h198.194c4.561 0 8.258-3.698 8.258-8.258v-8.258z" fill="#4b3f4e"/></g></svg>